<?xml version="1.0" encoding="UTF-8" standalone="no" ?>
<!DOCTYPE svg PUBLIC "-//W3C//DTD SVG 1.1//EN" "http://www.w3.org/Graphics/SVG/1.1/DTD/svg11.dtd">
<svg xmlns="http://www.w3.org/2000/svg" xmlns:xlink="http://www.w3.org/1999/xlink" version="1.1" width="1080" height="1080" viewBox="0 0 1080 1080" xml:space="preserve">
<desc>Created with Fabric.js 5.2.4</desc>
<defs>
</defs>
<g transform="matrix(1 0 0 1 540 540)" id="ab7f7195-2c2d-4804-9e38-776409e75006"  >
<rect style="stroke: none; stroke-width: 1; stroke-dasharray: none; stroke-linecap: butt; stroke-dashoffset: 0; stroke-linejoin: miter; stroke-miterlimit: 4; fill: rgb(255,255,255); fill-rule: nonzero; opacity: 1; visibility: hidden;" vector-effect="non-scaling-stroke"  x="-540" y="-540" rx="0" ry="0" width="1080" height="1080" />
</g>
<g transform="matrix(1 0 0 1 540 540)" id="4ef99bd8-4cf0-4ee4-ba4e-26c5bf3590dc"  >
</g>
<g transform="matrix(1.34 0 0 1.34 540 540)"  >
<g style="" vector-effect="non-scaling-stroke"   >
		<g transform="matrix(1 0 0 1 -25.97 -0.01)" clip-path="url(#CLIPPATH_3)"  >
<clipPath id="CLIPPATH_3" >
	<rect transform="matrix(1 0 0 1 25.63 -25.63)" id="clip0_414_202" x="-45.04565" y="-35" rx="0" ry="0" width="90.0913" height="70" />
</clipPath>
<path style="stroke: none; stroke-width: 1; stroke-dasharray: none; stroke-linecap: butt; stroke-dashoffset: 0; stroke-linejoin: miter; stroke-miterlimit: 4; fill: rgb(112,255,0); fill-rule: nonzero; opacity: 1;" vector-effect="non-scaling-stroke"  transform=" translate(-19.42, -60.63)" d="M 27.0765 64.4165 C 27.0799 65.152 26.9331 65.8803 26.6452 66.5571 C 26.3702 67.2135 25.9748 67.8125 25.4793 68.3233 C 24.9801 68.8312 24.3881 69.2387 23.7355 69.5238 C 23.0616 69.8225 22.332 69.9751 21.5949 69.9714 L 13.5861 69.9714 C 13.3461 69.9749 13.1079 69.9294 12.8861 69.8377 C 12.6643 69.7461 12.4636 69.6102 12.296 69.4383 C 12.126 69.2711 11.991 69.0717 11.8989 68.8518 C 11.8067 68.6319 11.7593 68.3959 11.7593 68.1574 C 11.7593 67.919 11.8067 67.6829 11.8989 67.463 C 11.991 67.2431 12.126 67.0437 12.296 66.8765 C 12.4636 66.7047 12.6643 66.5688 12.8861 66.4771 C 13.1079 66.3855 13.3461 66.34 13.5861 66.3434 L 21.5359 66.3434 C 21.7879 66.3464 22.0377 66.2973 22.2698 66.1993 C 22.502 66.1013 22.7114 65.9564 22.8849 65.7737 C 23.0667 65.5975 23.2106 65.3861 23.3078 65.1524 C 23.4051 64.9187 23.4537 64.6676 23.4506 64.4145 C 23.4555 64.1569 23.4079 63.901 23.3107 63.6624 C 23.2134 63.4238 23.0685 63.2075 22.8849 63.0268 C 22.7114 62.8441 22.502 62.6992 22.2698 62.6012 C 22.0377 62.5032 21.7879 62.4541 21.5359 62.457 L 17.7573 62.457 C 17.0101 62.4622 16.2698 62.314 15.5822 62.0216 C 14.2472 61.46 13.1852 60.398 12.6236 59.063 C 12.3363 58.3735 12.1884 57.6339 12.1884 56.8869 C 12.1884 56.1399 12.3363 55.4003 12.6236 54.7107 C 12.9031 54.0497 13.3073 53.4487 13.814 52.9404 C 14.3207 52.4349 14.9159 52.0266 15.57 51.7359 C 16.2499 51.4335 16.9867 51.2802 17.7309 51.2862 L 21.4199 51.2862 C 21.6599 51.2829 21.898 51.3284 22.1198 51.4201 C 22.3415 51.5117 22.5424 51.6475 22.7099 51.8193 C 22.8802 51.9864 23.0154 52.1857 23.1077 52.4056 C 23.2 52.6255 23.2476 52.8617 23.2476 53.1002 C 23.2476 53.3387 23.2 53.5748 23.1077 53.7947 C 23.0154 54.0147 22.8802 54.214 22.7099 54.3811 C 22.5429 54.5543 22.3425 54.6917 22.1207 54.7851 C 21.8989 54.8785 21.6605 54.9259 21.4199 54.9243 L 17.7126 54.9243 C 17.206 54.9371 16.7249 55.1492 16.3737 55.5144 C 16.0193 55.8851 15.8216 56.3781 15.8216 56.8909 C 15.8216 57.4037 16.0193 57.8968 16.3737 58.2675 C 16.5478 58.4536 16.7593 58.6008 16.9942 58.6997 C 17.2291 58.7986 17.4822 58.8468 17.737 58.8413 L 21.5094 58.8413 C 22.258 58.8365 22.9992 58.9898 23.6846 59.2909 C 24.3439 59.5781 24.9442 59.9851 25.4548 60.4915 C 25.9613 60.9975 26.3654 61.5965 26.6452 62.2556 C 26.9349 62.9389 27.0817 63.6743 27.0765 64.4165 L 27.0765 64.4165 Z" stroke-linecap="round" />
</g>
		<g transform="matrix(1 0 0 1 -7.25 0.03)" clip-path="url(#CLIPPATH_4)"  >
<clipPath id="CLIPPATH_4" >
	<rect transform="matrix(1 0 0 1 6.92 -25.67)" id="clip0_414_202" x="-45.04565" y="-35" rx="0" ry="0" width="90.0913" height="70" />
</clipPath>
<path style="stroke: none; stroke-width: 1; stroke-dasharray: none; stroke-linecap: butt; stroke-dashoffset: 0; stroke-linejoin: miter; stroke-miterlimit: 4; fill: rgb(112,255,0); fill-rule: nonzero; opacity: 1;" vector-effect="non-scaling-stroke"  transform=" translate(-38.13, -60.67)" d="M 36.5934 51.4654 C 38.6807 51.1222 40.8227 51.4962 42.6703 52.5264 C 44.5178 53.5566 45.9619 55.1822 46.7672 57.1383 C 47.6004 59.202 47.6725 61.4948 46.9707 63.6068 C 46.6562 64.5361 46.2012 65.4117 45.6216 66.2032 C 44.6908 67.4661 43.4524 68.4698 42.0241 69.119 C 40.6107 69.7821 39.053 70.0788 37.4948 69.9818 C 36.6835 69.9243 35.8835 69.7587 35.1161 69.4894 C 33.5895 68.957 32.2225 68.047 31.1422 66.8442 C 30.5987 66.242 30.14 65.5683 29.7789 64.8419 C 29.4319 64.1301 29.1736 63.3784 29.0098 62.6037 C 28.8455 61.8366 28.7818 61.0513 28.8206 60.2678 C 28.8593 59.4813 28.9904 58.702 29.2112 57.9461 C 29.4331 57.184 29.7605 56.4566 30.1839 55.7852 C 30.3274 55.5207 30.4921 55.2683 30.6763 55.0303 L 30.7048 55.0303 C 31.4052 54.0791 32.2929 53.2814 33.3133 52.6863 C 34.3268 52.0905 35.437 51.6772 36.5934 51.4654 L 36.5934 51.4654 Z M 42.8604 63.9121 C 43.6731 62.7212 44.0147 61.2709 43.8188 59.8425 C 43.7208 59.1805 43.5044 58.5416 43.1799 57.9563 C 42.7974 57.2655 42.2855 56.6548 41.6721 56.1576 C 41.0613 55.6594 40.3476 55.3029 39.5824 55.1137 C 38.8276 54.9012 38.0361 54.852 37.2608 54.9693 C 36.4765 55.0824 35.7249 55.3598 35.0551 55.7832 C 34.1907 56.336 33.4885 57.1084 33.0203 58.0214 C 32.5407 58.9306 32.3197 59.9539 32.3814 60.98 C 32.4144 61.7701 32.6229 62.5431 32.9918 63.2426 C 33.0881 63.4163 33.1797 63.5953 33.2665 63.7798 C 33.355 63.9661 33.457 64.1456 33.5717 64.317 C 33.3981 64.0267 33.234 63.7269 33.0793 63.4176 C 33.3892 63.9789 33.7917 64.4838 34.2697 64.9111 C 34.754 65.3463 35.3032 65.7033 35.8975 65.9692 C 36.5115 66.239 37.1706 66.3915 37.8407 66.4189 C 38.5099 66.4496 39.179 66.3564 39.8144 66.1442 C 40.4299 65.9525 41.0084 65.6581 41.5256 65.2733 C 42.0404 64.8929 42.4905 64.4318 42.8584 63.908 L 42.8604 63.9121 Z" stroke-linecap="round" />
</g>
		<g transform="matrix(1 0 0 1 10.13 -0.01)" clip-path="url(#CLIPPATH_5)"  >
<clipPath id="CLIPPATH_5" >
	<rect transform="matrix(1 0 0 1 -10.46 -25.63)" id="clip0_414_202" x="-45.04565" y="-35" rx="0" ry="0" width="90.0913" height="70" />
</clipPath>
<path style="stroke: none; stroke-width: 1; stroke-dasharray: none; stroke-linecap: butt; stroke-dashoffset: 0; stroke-linejoin: miter; stroke-miterlimit: 4; fill: rgb(112,255,0); fill-rule: nonzero; opacity: 1;" vector-effect="non-scaling-stroke"  transform=" translate(-55.51, -60.63)" d="M 63.1674 64.4165 C 63.1676 65.1527 63.0173 65.8811 62.7258 66.5571 C 62.4509 67.2135 62.0555 67.8125 61.5599 68.3233 C 61.0608 68.8312 60.4688 69.2388 59.8161 69.5238 C 59.1422 69.8225 58.4127 69.9751 57.6756 69.9714 L 49.6769 69.9714 C 49.4369 69.9749 49.1988 69.9294 48.977 69.8377 C 48.7552 69.7461 48.5544 69.6102 48.3869 69.4383 C 48.2169 69.2711 48.0819 69.0717 47.9897 68.8518 C 47.8976 68.6319 47.8501 68.3959 47.8501 68.1574 C 47.8501 67.919 47.8976 67.6829 47.9897 67.463 C 48.0819 67.2431 48.2169 67.0437 48.3869 66.8765 C 48.5544 66.7047 48.7552 66.5688 48.977 66.4771 C 49.1988 66.3855 49.4369 66.34 49.6769 66.3434 L 57.6267 66.3434 C 57.8787 66.3464 58.1285 66.2973 58.3607 66.1993 C 58.5928 66.1013 58.8022 65.9564 58.9758 65.7737 C 59.1575 65.5975 59.3014 65.3861 59.3987 65.1524 C 59.4959 64.9187 59.5445 64.6676 59.5414 64.4145 C 59.5464 64.1569 59.4987 63.901 59.4015 63.6624 C 59.3042 63.4238 59.1594 63.2075 58.9758 63.0268 C 58.8022 62.8441 58.5928 62.6992 58.3607 62.6012 C 58.1285 62.5032 57.8787 62.4541 57.6267 62.457 L 53.8543 62.457 C 53.1071 62.4622 52.3668 62.314 51.6791 62.0216 C 50.3442 61.46 49.2822 60.398 48.7205 59.063 C 48.4333 58.3735 48.2854 57.6339 48.2854 56.8869 C 48.2854 56.1399 48.4333 55.4003 48.7205 54.7107 C 49 54.0497 49.4042 53.4487 49.9109 52.9404 C 50.4176 52.4349 51.0128 52.0266 51.6669 51.7359 C 52.3469 51.4335 53.0837 51.2802 53.8278 51.2862 L 57.5128 51.2862 C 57.7527 51.2829 57.9908 51.3284 58.2126 51.4201 C 58.4344 51.5117 58.6352 51.6475 58.8028 51.8193 C 58.973 51.9864 59.1083 52.1857 59.2006 52.4056 C 59.2929 52.6255 59.3404 52.8617 59.3404 53.1002 C 59.3404 53.3387 59.2929 53.5748 59.2006 53.7947 C 59.1083 54.0147 58.973 54.214 58.8028 54.3811 C 58.6342 54.5532 58.4324 54.6892 58.2095 54.7808 C 57.9867 54.8725 57.7476 54.9179 57.5067 54.9142 L 53.8034 54.9142 C 53.2968 54.927 52.8157 55.139 52.4645 55.5042 C 52.1102 55.8749 51.9124 56.368 51.9124 56.8808 C 51.9124 57.3936 52.1102 57.8866 52.4645 58.2573 C 52.6387 58.4434 52.8501 58.5907 53.085 58.6895 C 53.3199 58.7884 53.573 58.8366 53.8278 58.8311 L 57.6003 58.8311 C 58.3489 58.8264 59.0901 58.9796 59.7754 59.2808 C 60.4348 59.5679 61.035 59.975 61.5457 60.4813 C 62.0489 60.9895 62.4496 61.5898 62.7258 62.2495 C 63.0199 62.934 63.1702 63.6716 63.1674 64.4165 L 63.1674 64.4165 Z" stroke-linecap="round" />
</g>
		<g transform="matrix(1 0 0 1 26.98 0.02)" clip-path="url(#CLIPPATH_6)"  >
<clipPath id="CLIPPATH_6" >
	<rect transform="matrix(1 0 0 1 -27.32 -25.67)" id="clip0_414_202" x="-45.04565" y="-35" rx="0" ry="0" width="90.0913" height="70" />
</clipPath>
<path style="stroke: none; stroke-width: 1; stroke-dasharray: none; stroke-linecap: butt; stroke-dashoffset: 0; stroke-linejoin: miter; stroke-miterlimit: 4; fill: rgb(112,255,0); fill-rule: nonzero; opacity: 1;" vector-effect="non-scaling-stroke"  transform=" translate(-72.36, -60.67)" d="M 78.4848 66.9112 C 78.6539 67.0803 78.7872 67.2816 78.8771 67.5032 C 78.9669 67.7248 79.0113 67.9622 79.0077 68.2013 C 79.0099 68.4381 78.9649 68.673 78.8752 68.8922 C 78.7856 69.1114 78.6532 69.3105 78.4857 69.478 C 78.3183 69.6455 78.1191 69.7779 77.8999 69.8675 C 77.6807 69.9571 77.4458 70.0022 77.209 70 L 75.0603 70 C 73.818 70.0067 72.588 69.7545 71.4486 69.2593 C 70.3425 68.7835 69.3355 68.1044 68.4799 67.2571 C 67.6267 66.4073 66.9425 65.4034 66.4634 64.2986 C 65.9715 63.1531 65.7178 61.9194 65.7178 60.6727 C 65.7178 59.4259 65.9715 58.1923 66.4634 57.0467 C 66.9424 55.9419 67.6267 54.938 68.4799 54.0882 C 69.3346 53.2373 70.3417 52.5547 71.4486 52.0758 C 72.588 51.5807 73.818 51.3284 75.0603 51.3352 L 77.207 51.3352 C 77.4438 51.333 77.6787 51.378 77.8979 51.4676 C 78.1171 51.5573 78.3162 51.6897 78.4837 51.8571 C 78.6512 52.0246 78.7836 52.2238 78.8732 52.443 C 78.9628 52.6622 79.0079 52.8971 79.0057 53.1339 C 79.0094 53.373 78.965 53.6104 78.8752 53.832 C 78.7854 54.0536 78.6519 54.2549 78.4828 54.4239 C 78.3193 54.5974 78.1213 54.7348 77.9016 54.8273 C 77.6819 54.9198 77.4453 54.9654 77.207 54.9611 L 75.0603 54.9611 C 74.2971 54.9552 73.5411 55.1083 72.8404 55.4108 C 72.1664 55.7033 71.5518 56.1171 71.0274 56.6316 C 70.5016 57.1494 70.0827 57.7654 69.7943 58.4446 C 69.4944 59.1411 69.3413 59.892 69.3447 60.6503 C 69.3413 61.403 69.4885 62.1487 69.7775 62.8437 C 70.0664 63.5387 70.4914 64.169 71.0274 64.6974 C 71.5515 65.2124 72.1661 65.6262 72.8404 65.9183 C 73.5409 66.2212 74.2971 66.3744 75.0603 66.368 L 77.207 66.368 C 77.4461 66.3643 77.6833 66.4108 77.9034 66.5043 C 78.1235 66.5979 78.3215 66.7365 78.4848 66.9112 L 78.4848 66.9112 Z" stroke-linecap="round" />
</g>
</g>
</g>
</svg>